<?xml version="1.0" encoding="utf-8"?>
<!-- Generator: Adobe Illustrator 16.0.0, SVG Export Plug-In . SVG Version: 6.00 Build 0)  -->
<!DOCTYPE svg PUBLIC "-//W3C//DTD SVG 1.1//EN" "http://www.w3.org/Graphics/SVG/1.1/DTD/svg11.dtd">
<svg version="1.1" id="Calque_1" xmlns="http://www.w3.org/2000/svg" xmlns:xlink="http://www.w3.org/1999/xlink" x="0px" y="0px"
	 width="320.382px" height="75px" viewBox="0 0 320.382 75" enable-background="new 0 0 320.382 75" xml:space="preserve">
<g>
	<circle fill="#1A478D" cx="36.465" cy="36.347" r="31.524"/>
	<g>
		<g>
			<path d="M114.764,48.833h-8.355V36.813c0-0.923-0.097-1.564-0.291-1.921c-0.194-0.358-0.544-0.537-1.05-0.537
				c-0.938,0-1.407,0.827-1.407,2.48v11.998h-8.356V36.813c0-0.923-0.101-1.564-0.302-1.921c-0.201-0.358-0.555-0.537-1.061-0.537
				c-0.924,0-1.385,0.827-1.385,2.48v11.998h-8.356V35.115c0-2.503,0.841-4.63,2.525-6.38c1.684-1.75,3.724-2.625,6.122-2.625
				c2.473,0,4.692,1.042,6.658,3.127c2.19-2.085,4.379-3.127,6.569-3.127c2.785,0,5.02,1.013,6.703,3.039
				c1.325,1.579,1.988,3.88,1.988,6.904V48.833z"/>
			<path d="M125.148,26.87h8.356v12.579c0,1.266,0.529,1.899,1.586,1.899c1.042,0,1.563-0.633,1.563-1.899V26.87h8.356v12.423
				c0,2.89-0.96,5.329-2.882,7.317c-1.921,1.989-4.274,2.982-7.06,2.982c-3.172,0-5.728-1.154-7.664-3.462
				c-1.504-1.802-2.257-4.305-2.257-7.507V26.87z"/>
			<path d="M169.337,26.87v8.803c-1.177,0-1.984,0.22-2.424,0.659c-0.439,0.44-0.719,1.308-0.838,2.604
				c-0.387,4.304-2.056,7.343-5.005,9.116c-1.564,0.924-3.783,1.385-6.658,1.385h-1.162v-8.848h0.38c1.341,0,2.298-0.28,2.872-0.838
				c0.573-0.559,0.904-1.538,0.994-2.938c0.12-2.279,0.332-3.879,0.637-4.804c0.305-0.924,0.927-1.839,1.865-2.748
				c1.638-1.594,3.911-2.391,6.815-2.391H169.337z"/>
			<path d="M185.91,26.558v22.275h-8.356V26.558H185.91z M181.754,16.615c1.132,0,2.111,0.399,2.938,1.195
				c0.827,0.797,1.24,1.739,1.24,2.826c0,1.162-0.391,2.115-1.173,2.86c-0.783,0.745-1.784,1.117-3.005,1.117
				c-1.222,0-2.224-0.372-3.005-1.117c-0.782-0.745-1.173-1.698-1.173-2.86c0-1.087,0.414-2.029,1.241-2.826
				C179.643,17.014,180.623,16.615,181.754,16.615z"/>
			<path d="M209.99,38.577l8.29-0.312c-0.239,3.217-1.438,5.861-3.598,7.932c-2.16,2.07-4.789,3.105-7.887,3.105
				c-3.277,0-6.044-1.14-8.3-3.419c-2.257-2.278-3.386-5.072-3.386-8.377c0-3.143,1.14-5.832,3.419-8.066
				c2.279-2.234,5.012-3.352,8.199-3.352c2.786,0,5.244,0.879,7.374,2.636c2.13,1.758,3.456,3.999,3.978,6.725l-8.469,0.313
				c-0.729-0.953-1.653-1.43-2.771-1.43c-0.953,0-1.735,0.314-2.346,0.939c-0.61,0.625-0.916,1.415-0.916,2.369
				c0,0.968,0.324,1.78,0.972,2.435c0.648,0.656,1.456,0.983,2.424,0.983C208.39,41.058,209.395,40.231,209.99,38.577z"/>
			<path fill="#08448F" d="M231.445,41.326c1.095,0,2.036,0.396,2.823,1.189c0.788,0.794,1.182,1.737,1.182,2.832
				s-0.391,2.025-1.173,2.79c-0.782,0.766-1.726,1.148-2.832,1.148c-1.151,0-2.098-0.372-2.84-1.114
				c-0.744-0.743-1.115-1.69-1.115-2.841c0-1.117,0.386-2.063,1.157-2.84C229.418,41.714,230.351,41.326,231.445,41.326z"/>
			<path fill="#08448F" d="M254.164,41.142l6.217-0.235c-0.179,2.413-1.078,4.396-2.698,5.949c-1.62,1.553-3.592,2.33-5.917,2.33
				c-2.457,0-4.532-0.854-6.225-2.564c-1.693-1.709-2.539-3.804-2.539-6.284c0-2.357,0.854-4.374,2.564-6.049
				c1.709-1.676,3.759-2.514,6.149-2.514c2.089,0,3.933,0.659,5.53,1.977c1.597,1.318,2.592,3,2.982,5.044l-6.35,0.235
				c-0.548-0.715-1.241-1.073-2.078-1.073c-0.715,0-1.302,0.234-1.76,0.704c-0.458,0.47-0.687,1.061-0.687,1.776
				c0,0.726,0.243,1.335,0.729,1.826c0.486,0.492,1.092,0.737,1.819,0.737C252.963,43.001,253.716,42.381,254.164,41.142z"/>
			<path fill="#08448F" d="M275.156,31.774c2.368,0,4.399,0.852,6.091,2.555c1.692,1.704,2.539,3.746,2.539,6.125
				c0,2.413-0.857,4.468-2.572,6.166c-1.715,1.699-3.784,2.547-6.208,2.547c-2.424,0-4.497-0.852-6.217-2.555
				c-1.721-1.704-2.581-3.756-2.581-6.158c0-2.447,0.86-4.506,2.581-6.176C270.509,32.61,272.632,31.774,275.156,31.774z
				 M274.989,37.958c-0.67,0-1.24,0.243-1.709,0.729c-0.469,0.485-0.704,1.081-0.704,1.785c0,0.692,0.238,1.284,0.713,1.776
				c0.475,0.491,1.042,0.737,1.7,0.737c0.67,0,1.243-0.246,1.718-0.737c0.475-0.492,0.712-1.084,0.712-1.776
				c0-0.704-0.234-1.299-0.704-1.785C276.245,38.201,275.67,37.958,274.989,37.958z"/>
			<path fill="#08448F" d="M313.441,48.833h-6.267v-9.015c0-0.693-0.072-1.173-0.216-1.441c-0.147-0.268-0.408-0.402-0.789-0.402
				c-0.705,0-1.056,0.62-1.056,1.86v8.998h-6.268v-9.015c0-0.693-0.075-1.173-0.226-1.441c-0.15-0.268-0.415-0.402-0.795-0.402
				c-0.693,0-1.04,0.62-1.04,1.86v8.998h-6.267V38.544c0-1.877,0.631-3.471,1.893-4.784c1.263-1.313,2.793-1.969,4.591-1.969
				c1.855,0,3.521,0.782,4.994,2.346c1.642-1.564,3.286-2.346,4.928-2.346c2.089,0,3.764,0.76,5.026,2.279
				c0.995,1.184,1.49,2.91,1.49,5.178V48.833z"/>
		</g>
	</g>
	<g>
		<path fill="#FFFFFF" d="M58.019,38.918H34.313c-0.363-1.198-0.544-2.299-0.544-3.303c0-1.394,0.251-2.759,0.753-4.098h7.944
			c-0.559-3.093-2.3-4.64-5.227-4.64c-1.951,0-3.54,0.83-4.766,2.488c-1.228,1.659-1.84,3.784-1.84,6.376
			c0,2.703,0.592,4.891,1.777,6.564c1.185,1.673,2.739,2.509,4.662,2.509c1.561,0,3.066-0.78,4.516-2.341l8.905,10.703
			c-4.153,3.261-8.766,4.893-13.839,4.893c-6.188,0-11.387-2.077-15.595-6.23c-4.209-4.153-6.314-9.296-6.314-15.428
			c0-6.104,2.125-11.261,6.376-15.47c4.25-4.208,9.471-6.314,15.659-6.314c6.048,0,11.128,2.056,15.241,6.167
			c4.111,4.112,6.167,9.178,6.167,15.198C58.186,36.604,58.13,37.58,58.019,38.918z"/>
	</g>
</g>
</svg>
