<svg xmlns="http://www.w3.org/2000/svg" xmlns:xlink="http://www.w3.org/1999/xlink" viewBox="0 0 20.5 24"><defs><style>.cls-1{fill:#fff;}.cls-2{fill:none;}.cls-3{clip-path:url(#clip-path);}.cls-4{mask:url(#mask);}.cls-5,.cls-6{fill:#424b5a;}.cls-6{opacity:0;}.cls-7{fill:#e6e6e6;}.cls-8{fill:#b3b3b3;}.cls-9{fill:#999;}</style><clipPath id="clip-path" transform="translate(-1.75)"><rect class="cls-2" width="24" height="24"/></clipPath><mask id="mask" x="0" y="0" width="20.5" height="24" maskUnits="userSpaceOnUse"><g transform="translate(-1.75)"><rect class="cls-1" x="1.75" width="20.5" height="24"/></g></mask></defs><g id="Calque_2" data-name="Calque 2"><g id="header-items_alt"><g class="cls-3"><g class="cls-4"><path class="cls-5" d="M14,.14V.5a.5.5,0,0,1-.5.5h-3A.5.5,0,0,1,10,.5V.15C7,.52,1.68,1.82,1.75,6.42,1.85,12.83,7.21,24,12,24S22.15,12.83,22.25,6.42C22.32,1.8,17,.5,14,.14Z" transform="translate(-1.75)"/><path class="cls-6" d="M10.48,1h3A.5.5,0,0,0,14,.5V.14A18.46,18.46,0,0,0,12,0a17.89,17.89,0,0,0-2,.15V.5A.5.5,0,0,0,10.48,1Z" transform="translate(-1.75)"/></g><rect class="cls-7" x="7.73" y="18" width="5" height="1" rx="0.5"/><rect class="cls-7" x="8.23" y="18.5" width="4" height="1" rx="0.5"/><circle class="cls-7" cx="10.25" cy="7.9" r="4.5"/><path class="cls-7" d="M12,14A6.13,6.13,0,1,1,18.13,7.9,6.13,6.13,0,0,1,12,14ZM12,2A5.88,5.88,0,1,0,17.88,7.9,5.87,5.87,0,0,0,12,2Z" transform="translate(-1.75)"/><path class="cls-7" d="M12,13.26A5.36,5.36,0,1,1,17.36,7.9,5.37,5.37,0,0,1,12,13.26Zm0-10.5A5.14,5.14,0,1,0,17.14,7.9,5.15,5.15,0,0,0,12,2.76Z" transform="translate(-1.75)"/><path class="cls-8" d="M12,4.87A4.5,4.5,0,0,0,7.56,8.63,4.4,4.4,0,0,1,7.5,7.9a4.5,4.5,0,0,1,9,0,4.4,4.4,0,0,1-.06.73A4.5,4.5,0,0,0,12,4.87Z" transform="translate(-1.75)"/><rect class="cls-9" x="10.13" y="1.04" width="0.25" height="17.5"/><rect class="cls-9" x="9.13" y="1.04" width="0.25" height="17.5"/><rect class="cls-9" x="11.13" y="1.04" width="0.25" height="17.5"/></g></g></g></svg>