<svg xmlns="http://www.w3.org/2000/svg" xmlns:xlink="http://www.w3.org/1999/xlink" viewBox="0 0 27.33 32"><defs><style>.cls-1{fill:#fff;}.cls-2{fill:none;}.cls-3{clip-path:url(#clip-path);}.cls-4{mask:url(#mask);}.cls-5,.cls-6{fill:#424b5a;}.cls-6{opacity:0;}.cls-7{fill:#e6e6e6;}.cls-8{fill:#b3b3b3;}.cls-9{fill:#999;}</style><clipPath id="clip-path" transform="translate(-2.33)"><rect class="cls-2" width="32" height="32"/></clipPath><mask id="mask" x="0" y="0" width="27.33" height="32" maskUnits="userSpaceOnUse"><g transform="translate(-2.33)"><rect class="cls-1" x="2.33" width="27.33" height="32"/></g></mask></defs><g id="Calque_2" data-name="Calque 2"><g id="header-items"><g class="cls-3"><g class="cls-4"><path class="cls-5" d="M18.64.19V.67a.67.67,0,0,1-.67.66H14A.67.67,0,0,1,13.3.67V.2c-4,.49-11.06,2.23-11,8.36C2.47,17.11,9.61,32,16,32S29.53,17.11,29.67,8.56C29.76,2.39,22.63.67,18.64.19Z" transform="translate(-2.33)"/><path class="cls-6" d="M14,1.33h4a.67.67,0,0,0,.67-.66V.19A24.18,24.18,0,0,0,16,0a24,24,0,0,0-2.7.2V.67A.67.67,0,0,0,14,1.33Z" transform="translate(-2.33)"/></g><rect class="cls-7" x="10.3" y="24" width="6.67" height="1.33" rx="0.67"/><rect class="cls-7" x="10.97" y="24.67" width="5.33" height="1.33" rx="0.67"/><circle class="cls-7" cx="13.67" cy="10.53" r="6"/><path class="cls-7" d="M16,18.7a8.17,8.17,0,1,1,8.17-8.17A8.18,8.18,0,0,1,16,18.7Zm0-16a7.84,7.84,0,1,0,7.83,7.83A7.84,7.84,0,0,0,16,2.7Z" transform="translate(-2.33)"/><path class="cls-7" d="M16,17.68a7.15,7.15,0,1,1,7.15-7.15A7.16,7.16,0,0,1,16,17.68Zm0-14a6.86,6.86,0,1,0,6.85,6.85A6.85,6.85,0,0,0,16,3.68Z" transform="translate(-2.33)"/><path class="cls-8" d="M16,6.49a6,6,0,0,0-5.92,5,6.27,6.27,0,0,1-.08-1,6,6,0,1,1,12,0,6.27,6.27,0,0,1-.08,1A6,6,0,0,0,16,6.49Z" transform="translate(-2.33)"/><rect class="cls-9" x="13.5" y="1.39" width="0.33" height="23.33"/><rect class="cls-9" x="12.17" y="1.39" width="0.33" height="23.33"/><rect class="cls-9" x="14.83" y="1.39" width="0.33" height="23.33"/></g></g></g></svg>